/* XPM */
static char *b540b3ca47ae4d548eeca33271dbade2[] = {
/* columns rows colors chars-per-pixel */
"124 102 67 1 ",
"  c black",
". c #040400",
"X c #040404",
"o c #0B0404",
"O c #0F0C0F",
"+ c #170B04",
"@ c #1F1009",
"# c #1C1414",
"$ c #181818",
"% c #27140C",
"& c #2F1C11",
"* c #201C18",
"= c #28201C",
"- c #3B2015",
"; c #242020",
": c #2C282C",
"> c #342C28",
", c #383434",
"< c #432419",
"1 c #4B2C1A",
"2 c #53301E",
"3 c #5F3422",
"4 c #403C3C",
"5 c #673C26",
"6 c #6F402A",
"7 c #77442E",
"8 c #4C4848",
"9 c #585050",
"0 c #60585C",
"q c #6C6064",
"w c #746C70",
"e c #834C33",
"r c #8B543B",
"t c #8F5C3F",
"y c #976447",
"u c #9F6C4B",
"i c #A77453",
"p c #AB7C5B",
"a c #807478",
"s c #AF8463",
"d c #B7906B",
"f c #BB9872",
"g c #C39F7A",
"h c #887C80",
"j c #000000",
"k c #94888C",
"l c #988C90",
"z c #A09498",
"x c #A89CA0",
"c c #ACA4A8",
"v c #B0ACAC",
"b c #B8B0B4",
"n c #CBAB83",
"m c #D3B08E",
"M c #D7B896",
"N c #C0B8B8",
"B c #DBC39E",
"V c #E3CCAA",
"C c #EBD7B2",
"Z c #C8BCC0",
"A c #CCC4C8",
"S c #D4CCD0",
"D c #D8D4D8",
"F c #E0D8DC",
"G c #E4E0E4",
"H c #ECE8EC",
"J c #F4F0F4",
/* pixels */
"jjjjjjjjjjjjjjjjjjjjjjjjjjjjjjjjjjjjjjjjjjjjjjjjjjjjjjjjjjjjjjjjjjjjjjjjjjjjjjjjjjjjjjjjjjjjjjjjjjjjjjjjjjjjjjjjjjjjjjjjjjjj",
"jjjjjjjjjjjjjjjjjjjjjjjjjjjjjjjjjjjjjjjjjjjjjjjjjjjjjjjjjjjjjjjjjjjjjjjjjjjjjjjjjjjjjjjjjjjjjjjjjjjjjjjjjjjjjjjjjjjjjjjjjjjj",
"jjjjjjjjjjjjjjjjjjjjjjjjjjjjjjjjjjjjjjjjjjjjjjjjjjjjjjjjjjjjjjjjjjjjjjjjjjjjjjjjjjjjjjjjjjjjjjjjjjjjjjjjjjjjjjjjjjjjjjjjjjjj",
"jjjjjjjjjjjjjjjjjjjjjjjjjjjjjjjjjjjjjjjjjjjjjjjjjjjjjjjjjjjjjjjjjjjjjjjjjjjjjjjjjjjjjjjjjjjjjjjjjjjjjjjjjjjjjjjjjjjjjjjjjjjj",
"jjjjjjjjjjjjjjjjjjjjjjjjjjjjjjjjjjjjjjjjjjjjjjjjjjjjjjjjjjjjjjjjjjjjjjjjjjjjjjjjjjjjjjjjjjjjjjjjjjjjjjjjjjjjjjjjjjjjjjjjjjjj",
"jjjjjjjjjjjjjjjjjjjjjjjjjjjjjjjjjjjjjjjjjjjjjjjjjjjjjjjjjjjjjjjjjjjjjjjjjjjjjjjjjjjjjjjjjjjjjjjjjjjjjjjjjjjjjjjjjjjjjjjjjjjj",
"jjjjjjjjjjjjjjjjjjjjjjjjjjjjjjjjjjjjjjjjjjjjjjjjjjjjjjjjjjjjjjjjjjjjjjjjjjjjjjjjjjjjjjjjjjjjjjjjjjjjjjjjjjjjjjjjjjjjjjjjjjjj",
"jjjjjjjjjjjjjjjjjjjjjjjjjjjjjjjjjjjjjjjjjjjjjjjjjjjjjjjjjjjjjjjjjjjjjjjjjjjjjjjjjjjjjjjjjjjjjjjjjjjjjjjjjjjjjjjjjjjjjjjjjjjj",
"jjjjjjjjjjjjjjjjjjjjjjjjjjjjjjjjjjjjjjjjjjjjjjjjjjjjjjjjjjjjjjjjjjjjjjjjjjjjjjjjjjjjjjjjjjjjjjjjjjjjjjjjjjjjjjjjjjjjjjjjjjjj",
"jjjjjjjjjjjjjjjjjjjjjjjjjjjjjjjjjjjjjjjjjjjjjjjjjjjjjjjjjjjjjjjjjjjjjjjjjjjjjjjjjjjjjjjjjjjjjjjjjjjjjjjjjjjjjjjjjjjjjjjjjjjj",
"jjjjjjjjjjjjjjjjjjjjjjjjjjjjjjjjjjjjjjjjjjjjjjjjjjjjjjjjjjjjjjjjjjjjjjjjjjjjjjjjjjjjjjjjjjjjjjjjjjjjjjjjjjjjjjjjjjjjjjjjjjjj",
"jjjjjjjjjjjjjjjjjjjjjjjjjjjjjjjjjjjjjjjjjjjjjjjjjjjjjjjjjjjjjjjjjjjjjjjjjjjjjjjjjjjjjjjjjjjjjjjjjjjjjjjjjjjjjjjjjjjjjjjjjjjj",
"jjjjjjjjjjjjjjjjjjjjjjjjjjjjjjjjjjjjjjjjjjjjjjjjjjjjjjjjjjjjjjjjjjjjjjjjjjjjjjjjjjjjjjjjjjjjjjjjjjjjjjjjjjjjjjjjjjjjjjjjjjjj",
"jjjjjjjjjjjjjjjjjjjjjjjjjjjjjjjjjjjjjjjjjjjjjjjjjjjjjjjjjjjjjjjjjjjjjjjjjjjjjjjjjjjjjjjjjjjjjjjjjjjjjjjjjjjjjjjjjjjjjjjjjjjj",
"jjjjjjjjjjjjjjjjjjjjjjjjjjjjjjjjjjjjjjjjjjjjjjjjjjjjjjjjjjjjjjjjjjjjjjjjjjjjjjjjjjjjjjjjjjjjjjjjjjjjjjjjjjjjjjjjjjjjjjjjjjjj",
"jjjjjjjjjjjjjjjjjjjjjjjjjjjjjjjjjjjjjjjjjjjjjjjjjjjjjjjjjjjjjjjjjjjjjjjjjjjjjjjjjjjjjjjjjjjjjjjjjjjjjjjjjjjjjjjjjjjjjjjjjjjj",
"jjjjjjjjjjjjjjjjjjjjjjjjjjjjjjjjjjjjjjjjjjjjjjjjjjjjjjjjjjjjjjjjjjjjjjjjjjjjjjjjjjjjjjjjjjjjjjjjjjjjjjjjjjjjjjjjjjjjjjjjjjjj",
"jjjjjjjjjjjjjjjjjjjjjjjjjjjjjjjjjjjjjjjjjjjjjjjjjjjjjjjjjjjjjjjjjjjjjjjjjjjjjjjjjjjjjjjjjjjjjjjjjjjjjjjjjjjjjjjjjjjjjjjjjjjj",
"jjjjjjjjjjjjjjjjjjjjjjjjjjjjjjjjjjjjjjjjjjjjjjjjjjjjjjjjjjjjjjjjjjjjjjjjjjjjjjjjjjjjjjjjjjjjjjjjjjjjjjjjjjjjjjjjjjjjjjjjjjjj",
"jjjjjjjjjjjjjjjjjjjjjjjjjjjjjjjjjjjjjjjjjjjjjjjjjjjjjjjjjjjjjjjjjjjjjjjjjjjjjjjjjjjjjjjjjjjjjjjjjjjjjjjjjjjjjjjjjjjjjjjjjjjj",
"jjjjjjjjjjjjjjjjjjjjjjjjjjjjjjjjjjjjjjjjjjjjjjjjjjjjjjjjjjjjjjjjjjjjjjjjjjjjjjjjjjjjjjjjjjjjjjjjjjjjjjjjjjjjjjjjjjjjjjjjjjjj",
"jjjjjjjjjjjjjjjjjjjjjjjjjjjjjjjjjjjjjjjjjjjjjjjjjjjjjjjjjjjjjjjjjjjjjjjjjjjjjjjjjjjjjjjjjjjjjjjjjjjjjjjjjjjjjjjjjjjjjjjjjjjj",
"jjjjjjjjjjjjjjjjjjjjjjjjjjjjjjjjjjjjjjjjjjjjjjjjjjjjjjjjjjjjjjjjjjjjjjjjjjjjjjjjjjjjjjjjjjjjjjjjjjjjjjjjjjjjjjjjjjjjjjjjjjjj",
"jjjjjjjjjjjjjjjjjjjjjjjjjjjjjjjjjjjjjjjjjjjjjjjjjjjjjjjjjjjjjjjjjjjjjjjjjjjjjjjjjjjjjjjjjjjjjjjjjjjjjjjjjjjjjjjjjjjjjjjjjjjj",
"jjjjjjjjjjjjjjjjjjjjjjjjjjjjjjjjjjjj,jjjjjjjjjjjjjjjjjjjjjjjjjjjjjjjjjjjjjjjjjjjjjjjjjjjjjjjjjjjjjjjjjjjjjjjjjjjjjjjjjjjjjjj",
"jjjjjjjjjjjjjjjjjjjjjjjjjjjjjjjjjjj$q,jjjjjjjjjjjjjjjjjjjjjjjjjjjjjjjjjjjjjjjjjjjjjjjjjjjjjjjjjjjjjjjjjjjjjjjjjjjjjjjjjjjjjj",
"jjjjjjjjjjjjjjjjjjjjjjjjjjjjjjjj:;$OO;;OXjjjjjjjjjjjjjjjjjjjjjjjjjjjjjjjjjjjjjjjjjjjjjjjjjjjjjjjjjjjjjjjjjjjjjjjjjjjjjjjjjjj",
"jjjjjjjjjjjjjjjjjjjjjjjjjjjjjjjq4,;$OO;OOOXjjjjjjjjjjjjjjjjjjjjjjjjjjjjjjjjjjjjjjjjjjjjjjjjjjjjjjjjjjjjjjjjjjjjjjjjjjjjjjjjj",
"jjjjjjjjjjjjjjjjjjjjjjjjjjjjjj,9w8,;$O$O$OOXXjjjjjjjjjjjjjjjjjjjjjjjjjjjjjjjjjjjjjjjjjjjjjjjjjjjjjjjjjjjjjjjjjjjjjjjjjjjjjjj",
"jjjjjjjjjjjjjjjjjjjjjjjjjjjjj;:,8q84:$;:;$$OXXXjjjjjjjjjjjjjjjjjjjjjjjjjjjjjjjjjjjjjjjjjjjjjjjjjjjjjjjjjjjjjjjjjjjjjjjjjjjjj",
"jjjjjjjjjjjjjjjjjjjjjjjjjjjjj$;:,80,9,:$OOOXOXXXXjjjjjjjjjjjjjjjjjjjjjjjjjjjjjjjjjjjjjjjjjjjjjjjjjjjjjjjjjjjjjjjjjjjjjjjjjjj",
"jjjjjjjjjjjjjjjjjjjjjjjjjjjjjO$;:,:h9,:8;O$OXOXXXXjjjjjjjjjjjjjjjjjjjjjjjjjjjjjjjjjjjjjjjjjjjjjjjjjjjjjjjjjjjjjjjjjjjjjjjjjj",
"jjjjjjjjjjjjjjjjjjjjjjjjjjjjjOO$;:q0q4;;4X;OOOXOXXXXjjjjjjjjjjjjjjjjjjjjjjjjjjjjjjjjjjjjjjjjjjjjjjjjjjjjjjjjjjjjjjjjjjjjjjjj",
"jjjjjjjjjjjjjjjjjjjjjjjjjjjjjOOO$,8488,;$4XO;OOXXXXXXXjjjjjjjjjjjjjjjjjjjjjjjjjjjjjjjjjjjjjjjjjjjjjjjjjjjjjjjjjjjjjjjjjjjjjj",
"jjjjjjjjjjjjjjjjjjjjjjjjjjjjjjOOO4,,488:$$4;X;XOOXOXXXXjjjjjjjjjjjjjjjjjjjjjjjjjjjjjjjjjjjjjjjjjjjjjjjjjjjjjjjjjjjjjjjjjjjjj",
"jjjjjjjjjjjjjjjjjjjjjjjjjjjjjjXOO,::,484:$$,:$;OXOXOXXXXXjjjjjjjjjjjjjjjjjjjjjjjjjjjjjjjjjjjjjjjjjjjjjjjjjjjjjjjjjjjjjjjjjjj",
"jjjjjjjjjjjjjjjjjjjjjjjjjjjjjjjXO:;$::484:$$4:;;OOOXXXXXXXXjjjjjjjjjjjjjjjjjjjjjjjjjjjjjjjjjjjjjjjjjjjjjjjjjjjjjjjjjjjjjjjjj",
"jjjjjjjjjjjjjjjjjjjjjjjjjjjjjjjjO;OO,;:,84:$$;,$O:XOXOXXXXXXjjjjjjjjjjjjjjjjjjjjjjjjjjjjjjjjjjjjjjjjjjjjjjjjjjjjjjjjjjjjjjjj",
"jjjjjjjjjjjjjjjjjjjjjjjjjjjjjjjj:$$;$O;,,84:$O$,8;OXXXOXOXXXXXjjjjjjjjjjjjjjjjjjjjjjjjjjjjjjjjjjjjjjjjjjjjjjjjjjjjjjjjjjjjjj",
"jjjjjjjjjjjjjjjjjjjjjjjjjjjjjjjjq:O$$;,::,8,:$$$;XX;XOXOXXXXXXXjjjjjjjjjjjjjjjjjjjjjjjjjjjjjjjjjjjjjjjjjjjjjjjjjjjjjjjjjjjjj",
"jjjjjjjjjjjjjjjjjjjjjjjjjjjjjjjj,$:$O$OO;:,84:$O$:4;XOOXOXXXXXXXXjjjjjjjjjjjjjjjjjjjjjjjjjjjjjjjjjjjjjjjjjjjjjjjjjjjjjjjjjjj",
"jjjjjjjjjjjjjjjjjjjjjjjjjjjjjjjj$;w:$$O$,;:,84:$$O$XX:XOXOXOXXXXXXXjjjjjjjjjjjjjjjjjjjjjjjjjjjjjjjjjjjjjjjjjjjjjjjjjjjjjjjjj",
"jjjjjjjjjjjjjjjjjjjjjjjjjjjjjjjXX;,:O$$:$O$:4984;$O:9;O$OXOXOXO$$$$Ojjjjjjjjjjjjjjjjjjjjjjjjjjjjjjjjjjjjjjjjjjjjjjjjjjjjjjjj",
"jjjjjjjjjjjjjjjjjjjjjjjjjjjjjj$XXO$;XO$$OO,:,4904,;$$XX;XO$;:;OXXXXXXXjjjjjjjjjjjjjjjjjjjjjjjjjjjjjjjjjjjjjjjjjjjjjjjjjjjjjj",
"jjjjjjjjjjjjjjjjjjjjjjjjjjjjj;OOXOXXXOO$$:OO$,49084,:;4:;::$XXXOOOXXOXXXjjjjjjjjjjjjjjjjjjjjjjjjjjjjjjjjjjjjjjjjjjjjjjjjjjjj",
"jjjjjjjjjjjjjjjjjjjjjjjjjjjjj:$OO$OXXXXO$$O$,;,89q988444,OXXO$$$XOOOOOXOXjjjjjjjjjjjjjjjjjjjjjjjjjjjjjjjjjjjjjjjjjjjjjjjjjjj",
"jjjjjjjjjjjjjjjjjjjjjjjjjjjjO$:$O$::$XXXO$$:OO$88qwq000:XX$;;$OOOOOXXXXXXXOjjjjjjjjjjjjjjjjjjjjjjjjjjjjjjjjjjjjjjjjjjjjjjjjj",
"jjjjjjjjjjjjjjjjjjjjjjjjjjjjOO$:$:::4$XXXO$$;O4:,9hhwa;X$4:;$O$OOO$OXOOOOOO;Ojjjjjjjjjjjjjjjjjjjjjjjjjjjjjjjjjjjjjjjjjjjjjjj",
"jjjjjjjjjjjjjjjjjjjjjjjjjjjjXOO$$$:::$OXXXO$$:OO$0wll;X;qq8:;$O$OOO$OX$O$OOO$;Ojjjjjjjjjjjjjjjjjjjjjjjjjjjjjjjjjjjjjjjjjjjjj",
"jjjjjjjjjjjjjjjjjjjjjjjjjjjjXXOO$$;:$$$OXXXO$$;O840a4X;hw094:;$$OOOO;OXOO$O$OO;$jjjjjjjjjjjjjjjjjjjjjjjjjjjjjjjjjjjjjjjjjjjj",
"jjjjjjjjjjjjjjjjjjjjjjjjjjjjXXXOO$$:$:;OOXXXO$$$;,9qXO9whw4q4:$OO$OOO;OXOOOO$OO:;Ojjjjjjjjjjjjjjjjjjjjjjjjjjjjjjjjjjjjjjjjjj",
"jjjjjjjjjjjjjjjjjjjjjjjjjjjjjXXOOO$$4;$$OOXXXO$O$:8:X:80kOX:04:$OOOOOO;$X$O$OOOO;:$Xjjjjjjjjjjjjjjjjjjjjjjjjjjjjjjjjjjjjjjjj",
"jjjjjjjjjjjjjjjjjjjjjjjjjjjjjXXXOOX9,;$O$OOXXXO$$;4XX449XXXX:94:$O$O$OO$$X$O$O$$O;:$Xjjjjjjjjjjjjjjjjjjjjjjjjjjjjjjjjjjjjjjj",
"jjjjjjjjjjjjjjjjjjjjjjjjjjjjjjXXXO;:8:;$O$OOXXXO$$:X$,4;XXX;4;98,$O$OOOO$;O$O$O$$O$:;Ojjjjjjjjjjjjjjjjjjjjjjjjjjjjjjjjjjjjjj",
"jjjjjjjjjjjjjjjjjjjjjjjjjjjjjjjXXX$;:4:;$O$OOXXXO$$X::,XXXO8q4:q8,;$;$$OOO:O$$;$;$$$:;Ojjjjjjjjjjjjjjjjjjjjjjjjjjjjjjjjjjjjj",
"jjjjjjjjjjjjjjjjjjjjjjjjjjjjjjjjXOO$$:4:;$$$OOXXXOXX;:$XXO8q949lq84;$$;$O$O;O$$$$;$;$:;OXjjjjjjjjjjjjjjjjjjjjjjjjjjjjjjjjjjj",
"jjjjjjjjjjjjjjjjjjjjjjjjjjjjjjjjjXOO$$:,:;;O$OOXXXXX$;XXX;qq8,qhla94;;$;$;$$$O;$;$;$:$,:OXjjjjjjjjjjjjjjjjjjjjjjjjjjjjjjjjjj",
"jjjjjjjjjjjjjjjjjjjjjjjjjjjjjjjjjOXOO$$:4:;;$OOOXOXX;$XXXO80:89qwkw94;:;;$;$$;O;$;;;::;8:OXXjjjjjjjjjjjjjjjjjjjjjjjjjjjjjjjj",
"jjjjjjjjjjjjjjjjjjjjjjjjjjjjjjjjjXOOOO$$:8:$;$OOO$OX$;XXXX;:,889qwhw94:::;;:;$:O;;::;:,;,:OXXjjjjjjjjjjjjjjjjjjjjjjjjjjjjjjj",
"jjjjjjjjjjjjjjjjjjjjjjjjjjjjjjjjjjXOXOO$$:8:$;$;;OOOO$XXXX$;,4489qwaq94,:,:;:;;;O::,:,:,;,;OXXjjjjjjjjjjjjjjjjjjjjjjjjjjjjjj",
"jjjjjjjjjjjjjjjjjjjjjjjjjjjjjjjjjjjXXXOO$$:4:$::;;;O$$XXXXO:,,4489qwaq94,:,::::,$$,,,:,::::;OXXjjjjjjjjjjjjjjjjjjjjjjjjjjjjj",
"jjjjjjjjjjjjjjjjjjjjjjjjjjjjjjjjjjjjXOXOO$;:4,:8,$XOO$XXXX$::,,,480qahw98444,4,4,O;,:,::;$,:;OXXjjjjjjjjjjjjjjjjjjjjjjjjjjjj",
"jjjjjjjjjjjjjjjjjjjjjjjjjjjjjjjjjjjjXXXXO$$;,4q:XXX$$OXXXX$;:::,,480wahw084884848;$:,::::;$,:$OXXjjjjjjjjjjjjjjjjjjjjjjjjjjj",
"jjjjjjjjjjjjjjjjjjjjjjjjjjjjjjjjjjjjjXXOOO$;:8;XOXX$O$XXXXO;;;::,,48qwhkaq9998884,O;:,:;:;O:,:$OXXjjjjjjjjjjjjjjjjjjjjjjjjjj",
"jjjjjjjjjjjjjjjjjjjjjjjjjjjjjjjjjjjjjjXXOXO;:,XXX;X$$OXXXX$$$;;::,,49qakxhq0998484$$,:::;:$$,:;OOXXjjjjjjjjjjjjjjjjjjjjjjjjj",
"jjjjjjjjjjjjjjjjjjjjjjjjjjjjjjjjjjjjjjjXXO$$,OXXXO$;$$XXXXO$$$;;::,440wlbzwq988844:O:;:;:;;O:,:$OXXXjjjjjjjjjjjjjjjjjjjjjjjj",
"jjjjjjjjjjjjjjjjjjjjjjjjjjjjjjjjjjjjjjjXXXO$:XXXXXO$$$OXXX$$;::;;::,480hxchq9984,4,X;:;;;;$$$4:;$OXXXjjjjjjjjjjjjjjjjjjjjjjj",
"jjjjjjjjjjjjjjjjjjjjjjjjjjjjjjjjjjjjjjjjXOX;OXXXXX$;$O:XXO$$:$$=::::,49wkxlw98484,4O$;;:;;;;O,,:;OOXXjjjjjjjjjjjjjjjjjjjjjjj",
"jjjjjjjjjjjjjjjjjjjjjjjjjjjjjjjjjjjjjjjjjOX$XXXOXOO;O$O,X$O>;4OO;:::,48qhkza9444,,:$O;:;;$;$O;4:$$OXXXjjjjjjjjjjjjjjjjjjjjjj",
"jjjjjjjjjjjjjjjjjjjjjjjjjjjjjjjjjjjjjjjjjXXOOXOXOXO$$$$$:O;$4,O$$;;::,40whzh084,,:,;X;$;$;$;$$4:;O$OXXjjjjjjjjjjjjjjjjjjjjjj",
"jjjjjjjjjjjjjjjjjjjjjjjjjjjjjjjjjjjjjjjjjjXXXX$O$OO$O$O$O$;:,,O$O;;::,49qalhq4,:,,::X$;$;$$$;O,,:;OOXXXjjjjjjjjjjjjjjjjjjjjj",
"jjjjjjjjjjjjjjjjjjjjjjjjjjjjjjjjjjjjjjjjjjXXXXO$$OO;$O$O$;$O:,O$:;$;::,40wkkw8,,,:,:OO$$$;$;$O:4;$$OOXXjjjjjjjjjjjjjjjjjjjjj",
"jjjjjjjjjjjjjjjjjjjjjjjjjjjjjjjjjjeyuutr72-%XX$:$$O$O$O$O;#$O,O:,:;;::,49qhkw8,::,:;$X$$O$$$$O;4:;O$XOXXjjjjjjjjjjjjjjjjjjjj",
"jjjjjjjjjjjjjjjjjjjjjjjjjjjjjjusgMndspuutt6&XXX;:;$O$OOO$:XO$O;,,,:;;::,80hka9:,::;;;XO$$$O$O$O8;$;OOXXXXjjjjjjjjjjjjjjjjjjj",
"jjjjjjjjjjjjjjjjjjjjjjjjjjjjtidgnngspur7352%@XXO;,;OO$O$O:X$$,;,,,:$;;:,89azh9,:;;;;;X$O$O$O$OO8:;$OXOXXXjjjjjjjjjjjjjjjjjjj",
"jjjjjjjjjjjjjjjjjjjjjjjjjjjidgmnnfduer731<&@+XXXO;,$$O$OO;#$O;XX$;:;$:;,49azh0,::;$;$XO$OOOXXXX4;$O$OXOXXjjjjjjjjjjjjjjjjjjj",
"jjjjjjjjjjjjjjjjjjjjjjjjjjifnmnngdpur62<-&%+oXXXXO$$O$O$O;;;:,O$;$:$;;:,48wzhq4:;:;$;XXO$$;;;:;;;$$OOOXXOXjjjjjjjjjjjjjjjjjj",
"jjjjjjjjjjjjjjjjjjjjjjjjrpgmMmmnnnnnmdie3<&@%@XXXXO$OOOO$$::,,;;=;:$$;;,48wzkq8,;:,44,::;;$;;$$$$;$;$OOOXXjjjjjjjjjjjjjjjjjj",
"jjjjjjjjjjjjjjjjjjjjjj7udgnmmmmmmmmmmgnmnngfsr1%o.XOOXOOOO;$,,;;*;;$$;::,8qkzw0qwq984::;;$;$$O$O$$O$O$OOOXXjjjjjjjjjjjjjjjjj",
"jjjjjjjjjjjjjjjjjjjjjeifMMMnnmmmmmmmnnnnngfffsr61@oXXOXOOO$;$,;$;:$$;$;:,8qkkwkxlhq8,,:;$;$$$$O$OO$OOOOXOOOjjjjjjjjjjjjjjjjj",
"jjjjjjjjjjjjjjjjjjjjepgBBMMMnmmmmmnnnnnggggddsut73-+XXXXOXO;>O$;:$O$$$;;,80hahcNxhq44::;;$O$$O$$$OOOXOXOXOXOjjjjjjjjjjjjjjjj",
"jjjjjjjjjjjjjjjjjjj7pmMCCBMmmmmmmmmnmngggffdsspiyr6<@.XOXOOO$::$$O$$$;$;:88qalbAvkq8,,:;$$$$O$O$O$OOOOOXOXOXjjjjjjjjjjjjjjjj",
"jjjjjjjjjjjjjjjjjj7igMBBBMmmmmmmmmmmnnnggdddssssspue1@oXOXOX$O$OO$O$O$$;,,90wzNDZkq4,,;$;$;$$$$O$OOOXOXOXXXXXjjjjjjjjjjjjjjj",
"jjjjjjjjjjjjjjjjjjufgnnmmMmnnmmmmmnmnnnggggdsddddspuy<%oXXXOOOOO$O$O$$;$;499wxZGAzq84::;$$$$O$O$O$OOOXOXOXOXXjjjjjjjjjjjjjjj",
"jjjjjjjjjjjjjjjjj7pfgfgmmmmmmmmmmmmnnggnggdddsdddsspue&oXXOXOXOOOOO$O$O;,440qlAHScw8,:;$;$$O$O$OOO$OXOOXXXXXXXjjjjjjjjjjjjjj",
"jjjjjjjjjjjjjjjjj7sfddggmmmmnmMMMMnnnnngngdsssdddddsiy1@XXXXOOOO$O$O$O$$:4480kZXDba84:;;$;$$$$O$O$OOOOXOXOXOXXjjjjjjjjjjjjjj",
"jjjjjjjjjjjjjjjjjrdfddfggnnmmnmMmnnmnnggggfdssddddddsue&oXXOXOOOOOO$O$O;:;,,9hbXGZk94,;;;$$$$O$O$OOOOXOOOXOXXXjjjjjjjjjjjjjj",
"jjjjjjjjjjjjjjjj1rdfdddfgnmmmmmmmmmmnngffffdddddsdfdsur5&.XXXOXOOOOOOO$$;;4:9wxGXSxq8,:$;$;$O$$$O$O$OOXOXOXXXXXjjjjjjjjjjjjj",
"jjjjjjjjjjjjjjjj3rdfdfdfgnmmmMMMMMMmgnffffdddddffsddsute2%XXOXOOX$OO$O$$;;;;40lDXFva8,:;$;$$$O$OOO$OOXOXOXXOXXXjjjjjjjjjjjjj",
"jjjjjjjjjjjjjjjj6ufffddfgnmMmmMMVBmmgngfngdffdddddsspuyt5-XXXOXOOOOOO$O$$;;$:8aAXGNk94,;;$;$O$O$O$OOOOXOOXOXXXXjjjjjjjjjjjjj",
"jjjjjjjjjjjjjjjjrpgfddfffnmBBVVMMBMMnggdggggdfdsddspiutt72@XXXXXOOX$OO$$;$;;:4abHHAz08::;;$;$$$O$O$O$OOOXOXXXOXjjjjjjjjjjjjj",
"jjjjjjjjjjjjjjj3ysffddfffnMMMVVMMMMnngnddggdgddssspiuttr73<+XOXOOOOOOO$O$;$$:,qxHXFvw8,:;$;$$$OOO$O$OOOXOOXOXXXjjjjjjjjjjjjj",
"jjjjjjjjjjjjjjj5idffdsdfgnMMMMBMmMMnnnnffngfdssspsiuyree752&oXOXOXOOXOO$O$$;$:9lGXGNh94,;;;$;$$O$OOOOOOOOXOXOXXXjjjjjjjjjjjj",
"jjjjjjjjjjjjjjj5idffddfdgnmMBmmmmnnnnggddfgfdddpiuuytre7773<%.XXXOOOOOOO$$;$$;8hSXHSlq4,:;$;$$O$OO$OOXOOXOXOXXXXjjjjjjjjjjjj",
"jjjjjjjjjjjjjj5epdddfddfgnmMMMmnnngnngdddddddspiuytrtee77752-%XXOXOXOOO$O$$;$$4wNXXGca84:;;$;$$OOOO$OOOOOOOXOXOXjjjjjjjjjjjj",
"jjjjjjjjjjjjjj5risddddfgfgnmmnmmmgngffgdddfdsspuytttree777751-+XXOOOOXOO$$$$$$,0vXXHZl04,:;;$$$$O$OOOOOXOOXXXXXXjjjjjjjjjjjj",
"jjjjjjjjjjjjjj3russsdddgggnnngnmngffffffddddspuytrrrree777752<%oXXXOXOOO$O$$$O:9zGXXDxq4:,;$;$$O$O$O$OOOOXOXOXXXjjjjjjjjjjjj",
"jjjjjjjjjjjjj55tppsssddfggnmnnmmnfdddddfdssspiuytrereeee77752<&@.XXXOXO$OO$$$$;8hSXXXbw84::;;$$$OOOOOOOOXOXOXOXXjjjjjjjjjjjj",
"jjjjjjjjjjjjj6eyipsdffgggggngfmnnngfddsdssspuuytrreeeeee65532<-&@XOXXOOOO$O$$O$4aNGXXSh9,,::$;O$$O$OOOXOOOOXXXXXXjjjjjjjjjjj",
"jjjjjjjjjjjjj6riissdddfgdfgngfgnmngfddsdpppuuytreeeeeee765321--&%+XXXOXO$O$$O$O,qvGXXGz044,;;$$$O$OO$OOXOOXOXOXXXjjjjjjjjjjj",
"jjjjjjjjjjjjj5rissssddddddgnngnnnngdddsppiiuyttreeeeee776531---&&%+XOXOOOO$O$OO:0xGXXXcw4,::;;$O$O$$OOXOXOOXOXXOXjjjjjjjjjjj",
"jjjjjjjjjjjj7erppsssppdfddggnnngngddsdsiiuuyrrreeeeee777531<-&&&&%@oXXOXO$O$OOO;9zSXXXNh8,,::$;$$$$O$OOOOOOOXXXXXjjjjjjjjjjj"
};
